<mxfile host="65bd71144e">
    <diagram id="5LquKadr7rG5nD2s-f8d" name="PÃ¡gina-1">
        <mxGraphModel dx="1489" dy="1580" grid="1" gridSize="10" guides="1" tooltips="1" connect="1" arrows="1" fold="1" page="1" pageScale="1" pageWidth="827" pageHeight="1169" background="#B3B3B3" math="0" shadow="0">
            <root>
                <mxCell id="0"/>
                <mxCell id="1" parent="0"/>
                <mxCell id="68" value="" style="edgeStyle=none;html=1;" edge="1" parent="1" source="69" target="71">
                    <mxGeometry relative="1" as="geometry"/>
                </mxCell>
                <mxCell id="69" value="INICIO" style="ellipse;whiteSpace=wrap;html=1;fillColor=#000000;strokeColor=#6c8ebf;gradientColor=#7ea6e0;" vertex="1" parent="1">
                    <mxGeometry x="180" y="-1120" width="120" height="80" as="geometry"/>
                </mxCell>
                <mxCell id="70" value="" style="edgeStyle=none;html=1;" edge="1" parent="1" source="71" target="74">
                    <mxGeometry relative="1" as="geometry"/>
                </mxCell>
                <mxCell id="71" value="a, b, c" style="shape=parallelogram;perimeter=parallelogramPerimeter;whiteSpace=wrap;html=1;fixedSize=1;fillColor=#000000;strokeColor=#996185;gradientColor=#d5739d;" vertex="1" parent="1">
                    <mxGeometry x="180" y="-970" width="120" height="60" as="geometry"/>
                </mxCell>
                <mxCell id="72" value="" style="edgeStyle=none;html=1;" edge="1" parent="1" source="74" target="77">
                    <mxGeometry relative="1" as="geometry">
                        <Array as="points">
                            <mxPoint x="90" y="-800"/>
                        </Array>
                    </mxGeometry>
                </mxCell>
                <mxCell id="73" value="" style="edgeStyle=none;html=1;fontColor=#000000;" edge="1" parent="1" source="74" target="88">
                    <mxGeometry relative="1" as="geometry">
                        <Array as="points">
                            <mxPoint x="490" y="-800"/>
                        </Array>
                    </mxGeometry>
                </mxCell>
                <mxCell id="74" value="d=b&lt;sup&gt;2&lt;/sup&gt;&lt;span style=&quot;font-size: 10px;&quot;&gt;-4ac&lt;/span&gt;" style="rhombus;whiteSpace=wrap;html=1;fillColor=#000000;strokeColor=#d6b656;gradientColor=#ffd966;" vertex="1" parent="1">
                    <mxGeometry x="200" y="-840" width="80" height="80" as="geometry"/>
                </mxCell>
                <mxCell id="75" value="" style="edgeStyle=none;html=1;" edge="1" parent="1" source="77" target="80">
                    <mxGeometry relative="1" as="geometry">
                        <Array as="points">
                            <mxPoint x="-80" y="-700"/>
                        </Array>
                        <mxPoint x="-80" y="-650" as="targetPoint"/>
                    </mxGeometry>
                </mxCell>
                <mxCell id="76" value="" style="edgeStyle=none;html=1;fontColor=none;" edge="1" parent="1" source="77" target="82">
                    <mxGeometry relative="1" as="geometry">
                        <Array as="points">
                            <mxPoint x="220" y="-700"/>
                        </Array>
                    </mxGeometry>
                </mxCell>
                <mxCell id="77" value="d&amp;gt;0" style="rhombus;whiteSpace=wrap;html=1;fillColor=#000000;strokeColor=#d6b656;gradientColor=#ffd966;" vertex="1" parent="1">
                    <mxGeometry x="50" y="-740" width="80" height="80" as="geometry"/>
                </mxCell>
                <mxCell id="78" value="&lt;b&gt;false&lt;/b&gt;" style="text;html=1;align=center;verticalAlign=middle;resizable=0;points=[];autosize=1;strokeColor=none;fillColor=none;" vertex="1" parent="1">
                    <mxGeometry x="165" y="-855" width="50" height="30" as="geometry"/>
                </mxCell>
                <mxCell id="79" value="&lt;b&gt;true&lt;/b&gt;" style="text;html=1;align=center;verticalAlign=middle;resizable=0;points=[];autosize=1;strokeColor=none;fillColor=none;" vertex="1" parent="1">
                    <mxGeometry x="275" y="-855" width="50" height="30" as="geometry"/>
                </mxCell>
                <mxCell id="80" value="numeros imaginarios" style="shape=document;whiteSpace=wrap;html=1;boundedLbl=1;fillColor=#000000;strokeColor=#b85450;gradientColor=#ea6b66;" vertex="1" parent="1">
                    <mxGeometry x="-140" y="-650" width="120" height="80" as="geometry"/>
                </mxCell>
                <mxCell id="81" value="" style="edgeStyle=none;html=1;fontColor=none;" edge="1" parent="1" source="82" target="83">
                    <mxGeometry relative="1" as="geometry"/>
                </mxCell>
                <mxCell id="82" value="x&lt;span style=&quot;font-size: 10px;&quot;&gt;1&lt;/span&gt;=((-b +sqrt(d))/2a))&lt;br&gt;x2=((-b-sqrt(d))/2a))" style="whiteSpace=wrap;html=1;fillColor=#000000;strokeColor=#996185;gradientColor=#d5739d;" vertex="1" parent="1">
                    <mxGeometry x="150" y="-651" width="140" height="70" as="geometry"/>
                </mxCell>
                <mxCell id="83" value="x1,x2" style="shape=document;whiteSpace=wrap;html=1;boundedLbl=1;fillColor=#000000;strokeColor=#b85450;gradientColor=#ea6b66;" vertex="1" parent="1">
                    <mxGeometry x="160" y="-506" width="120" height="80" as="geometry"/>
                </mxCell>
                <mxCell id="84" value="" style="endArrow=classic;html=1;fontColor=#000000;exitX=0.533;exitY=0.888;exitDx=0;exitDy=0;exitPerimeter=0;entryX=0.5;entryY=0;entryDx=0;entryDy=0;" edge="1" parent="1" source="83" target="85">
                    <mxGeometry width="50" height="50" relative="1" as="geometry">
                        <mxPoint x="280" y="-470" as="sourcePoint"/>
                        <mxPoint x="140" y="-320" as="targetPoint"/>
                        <Array as="points">
                            <mxPoint x="224" y="-240"/>
                            <mxPoint x="80" y="-240"/>
                        </Array>
                    </mxGeometry>
                </mxCell>
                <mxCell id="85" value="FIN" style="ellipse;whiteSpace=wrap;html=1;strokeColor=#6c8ebf;fillColor=#000000;gradientColor=#7ea6e0;" vertex="1" parent="1">
                    <mxGeometry x="20" y="-160" width="120" height="80" as="geometry"/>
                </mxCell>
                <mxCell id="86" value="" style="endArrow=classic;html=1;fontColor=#000000;entryX=0.5;entryY=0;entryDx=0;entryDy=0;" edge="1" parent="1" target="85">
                    <mxGeometry width="50" height="50" relative="1" as="geometry">
                        <mxPoint x="-80" y="-570" as="sourcePoint"/>
                        <mxPoint x="-80" y="-160" as="targetPoint"/>
                        <Array as="points">
                            <mxPoint x="-80" y="-240"/>
                            <mxPoint x="80" y="-240"/>
                        </Array>
                    </mxGeometry>
                </mxCell>
                <mxCell id="87" value="" style="edgeStyle=none;html=1;fontColor=#000000;" edge="1" parent="1" source="88" target="89">
                    <mxGeometry relative="1" as="geometry"/>
                </mxCell>
                <mxCell id="88" value="x1=((-b))/(2a))&lt;br&gt;x2=x1" style="whiteSpace=wrap;html=1;fillColor=#000000;strokeColor=#996185;gradientColor=#d5739d;" vertex="1" parent="1">
                    <mxGeometry x="430" y="-711" width="120" height="60" as="geometry"/>
                </mxCell>
                <mxCell id="89" value="x1,x2" style="shape=document;whiteSpace=wrap;html=1;boundedLbl=1;fillColor=#000000;strokeColor=#b85450;gradientColor=#ea6b66;" vertex="1" parent="1">
                    <mxGeometry x="430" y="-590" width="120" height="80" as="geometry"/>
                </mxCell>
                <mxCell id="90" value="" style="endArrow=classic;html=1;fontColor=#000000;entryX=0.5;entryY=0;entryDx=0;entryDy=0;" edge="1" parent="1" target="85">
                    <mxGeometry width="50" height="50" relative="1" as="geometry">
                        <mxPoint x="490" y="-510" as="sourcePoint"/>
                        <mxPoint x="70" y="-160" as="targetPoint"/>
                        <Array as="points">
                            <mxPoint x="490" y="-240"/>
                            <mxPoint x="220" y="-240"/>
                            <mxPoint x="80" y="-240"/>
                        </Array>
                    </mxGeometry>
                </mxCell>
                <mxCell id="91" value="&lt;b&gt;&lt;font color=&quot;#ffffff&quot;&gt;false&lt;/font&gt;&lt;/b&gt;" style="text;html=1;align=center;verticalAlign=middle;resizable=0;points=[];autosize=1;strokeColor=none;fillColor=none;fontColor=#000000;" vertex="1" parent="1">
                    <mxGeometry x="-30" y="-741" width="50" height="30" as="geometry"/>
                </mxCell>
                <mxCell id="92" value="&lt;b&gt;&lt;font color=&quot;#ffffff&quot;&gt;true&lt;/font&gt;&lt;/b&gt;" style="text;html=1;align=center;verticalAlign=middle;resizable=0;points=[];autosize=1;strokeColor=none;fillColor=none;fontColor=#000000;" vertex="1" parent="1">
                    <mxGeometry x="135" y="-741" width="50" height="30" as="geometry"/>
                </mxCell>
            </root>
        </mxGraphModel>
    </diagram>
</mxfile>